<svg width="14" height="14" viewBox="0 0 14 14" fill="none" xmlns="http://www.w3.org/2000/svg">
<path d="M13.4723 12.5276L10.999 10.0742C11.959 8.87719 12.424 7.35778 12.2982 5.82845C12.1724 4.29911 11.4654 2.8761 10.3226 1.85201C9.17987 0.827917 7.68816 0.280586 6.15424 0.32256C4.62032 0.364533 3.16077 0.992621 2.07572 2.07767C0.990668 3.16273 0.36258 4.62227 0.320607 6.15619C0.278633 7.69012 0.825964 9.18182 1.85006 10.3246C2.87415 11.4674 4.29716 12.1743 5.82649 12.3001C7.35582 12.4259 8.87523 11.961 10.0723 11.0009L12.5256 13.4542C12.5876 13.5167 12.6613 13.5663 12.7426 13.6002C12.8238 13.634 12.911 13.6514 12.999 13.6514C13.087 13.6514 13.1741 13.634 13.2553 13.6002C13.3366 13.5663 13.4103 13.5167 13.4723 13.4542C13.5925 13.3299 13.6596 13.1638 13.6596 12.9909C13.6596 12.818 13.5925 12.6519 13.4723 12.5276ZM6.33229 11.0009C5.40931 11.0009 4.50706 10.7272 3.73963 10.2144C2.9722 9.70166 2.37406 8.97282 2.02085 8.1201C1.66765 7.26738 1.57523 6.32907 1.75529 5.42382C1.93536 4.51858 2.37982 3.68706 3.03246 3.03441C3.68511 2.38177 4.51663 1.93731 5.42187 1.75725C6.32712 1.57718 7.26543 1.6696 8.11815 2.02281C8.97087 2.37602 9.6997 2.97416 10.2125 3.74158C10.7253 4.50901 10.999 5.41127 10.999 6.33425C10.999 7.57192 10.5073 8.75891 9.63212 9.63408C8.75695 10.5092 7.56997 11.0009 6.33229 11.0009Z" fill="#8F93A2"/>
</svg>
