<svg width="13" height="12" viewBox="0 0 13 12" fill="none" xmlns="http://www.w3.org/2000/svg">
<path d="M11.6441 9.05879H7.58124V8.21122L7.58112 8.20989H12.4967V8.05561C12.4967 4.93047 10.1041 2.36418 7.05073 2.08858V1.17154C7.05073 1.1211 7.09179 1.08005 7.14239 1.08005C7.25966 1.08005 7.36982 1.0345 7.45286 0.951605C7.53561 0.868762 7.58124 0.758792 7.58124 0.641964V0.410874C7.58124 0.169241 7.38434 -0.0273438 7.14239 -0.0273438H5.84978C5.60772 -0.0273438 5.4108 0.169241 5.4108 0.410874V0.641964C5.4108 0.883525 5.60772 1.08005 5.84978 1.08005C5.88279 1.08005 5.90469 1.09692 5.91444 1.10664C5.92451 1.11673 5.94141 1.13857 5.94141 1.17154V2.08867L5.94127 2.09027C2.8967 2.37447 0.513672 4.93673 0.513672 8.05561V8.20989H5.41097L5.41085 8.21122V9.05879H1.34798C0.888073 9.05879 0.513912 9.4323 0.513912 9.89138V11.5381H12.4781V9.89138C12.4781 9.4323 12.104 9.05879 11.6441 9.05879Z" fill="#6571A3" fill-opacity="0.65"/>
</svg>
