<svg width="20" height="20" viewBox="0 0 20 20" fill="none" xmlns="http://www.w3.org/2000/svg">
<path d="M9.99449 14.6875H9.97696C8.91908 14.6966 7.90796 15.1248 7.16537 15.8783C6.42278 16.6318 6.00933 17.649 6.0157 18.7069C6.0157 18.8126 6.05768 18.914 6.1324 18.9887C6.20712 19.0634 6.30846 19.1054 6.41413 19.1054H13.586C13.6917 19.1054 13.793 19.0634 13.8677 18.9887C13.9425 18.914 13.9844 18.8126 13.9844 18.7069C13.9812 17.6432 13.5572 16.6239 12.8051 15.8717C12.4388 15.4974 12.0016 15.1998 11.519 14.9965C11.0365 14.7932 10.5182 14.6881 9.99449 14.6875Z" fill="white"/>
<path d="M9.99449 14.6875H9.97696C8.91908 14.6966 7.90796 15.1248 7.16537 15.8783C6.42278 16.6318 6.00933 17.649 6.0157 18.7069C6.0157 18.8126 6.05768 18.914 6.1324 18.9887C6.20712 19.0634 6.30846 19.1054 6.41413 19.1054H13.586C13.6917 19.1054 13.793 19.0634 13.8677 18.9887C13.9425 18.914 13.9844 18.8126 13.9844 18.7069C13.9812 17.6432 13.5572 16.6239 12.8051 15.8717C12.4388 15.4974 12.0016 15.1998 11.519 14.9965C11.0365 14.7932 10.5182 14.6881 9.99449 14.6875Z" fill="#0495D0"/>
<path d="M10.0141 14.2891C10.7538 14.2873 11.4625 13.9917 11.9843 13.4674C12.506 12.9431 12.7982 12.2329 12.7964 11.4932C12.7946 10.7535 12.499 10.0448 11.9747 9.52305C11.4504 9.00127 10.7402 8.70915 10.0005 8.71095H9.98777C9.24807 8.71264 8.53933 9.0081 8.01748 9.53235C7.49562 10.0566 7.20339 10.7667 7.20509 11.5064C7.20678 12.2461 7.50224 12.9548 8.02649 13.4767C8.55074 13.9985 9.26082 14.2908 10.0005 14.2891H10.0141Z" fill="#0495D0"/>
<path opacity="0.5" d="M14.4885 5.80104C13.3913 4.71321 11.9363 4.06087 10.3942 3.96533C8.85211 3.86979 7.32779 4.33755 6.1047 5.28163C4.88162 6.22571 4.04302 7.58185 3.74485 9.09787C3.44668 10.6139 3.70923 12.1866 4.48368 13.5236C4.59395 13.697 4.76696 13.8211 4.96659 13.87C5.16622 13.9189 5.37703 13.8888 5.55497 13.786C5.73291 13.6831 5.86423 13.5155 5.9215 13.3181C5.97876 13.1207 5.95755 12.9088 5.86228 12.7267C5.44212 11.9999 5.22074 11.1753 5.2204 10.3358C5.22005 9.49624 5.44075 8.67144 5.8603 7.94429C6.27986 7.21714 6.88347 6.61327 7.61045 6.19342C8.33743 5.77357 9.16214 5.55253 10.0016 5.55253C10.8412 5.55253 11.6659 5.77357 12.3928 6.19342C13.1198 6.61327 13.7234 7.21714 14.143 7.94429C14.5625 8.67144 14.7832 9.49624 14.7829 10.3358C14.7825 11.1753 14.5612 11.9999 14.141 12.7267C14.0428 12.9091 14.0196 13.1226 14.0761 13.3219C14.1327 13.5212 14.2647 13.6907 14.4441 13.7943C14.6235 13.898 14.8362 13.9276 15.0371 13.8771C15.2381 13.8266 15.4114 13.6997 15.5204 13.5236C16.2264 12.3034 16.5081 10.8836 16.3214 9.48631C16.1347 8.08901 15.4901 6.79301 14.4885 5.80104Z" fill="#0495D0" fill-opacity="0.85"/>
<path opacity="0.3" d="M16.7318 3.66079C15.8398 2.77684 14.7823 2.07724 13.6199 1.60196C12.4575 1.12667 11.2128 0.88499 9.95696 0.890725C7.42069 0.902307 4.99289 1.92094 3.20767 3.72255C1.42244 5.52416 0.426018 7.96115 0.4376 10.4974C0.449182 13.0337 1.46782 15.4615 3.26942 17.2467C3.4204 17.3913 3.62215 17.4708 3.83118 17.468C4.0402 17.4652 4.23977 17.3804 4.38685 17.2319C4.53394 17.0833 4.61676 16.8829 4.61746 16.6739C4.61817 16.4648 4.53671 16.2639 4.39063 16.1144C3.27084 15.0051 2.50515 13.5887 2.19039 12.0443C1.87563 10.4999 2.02594 8.89684 2.62231 7.43785C3.21868 5.97887 4.23432 4.7295 5.54079 3.84777C6.84725 2.96604 8.38585 2.49155 9.962 2.4843C11.5381 2.47706 13.081 2.93738 14.3956 3.80707C15.7101 4.67675 16.7372 5.91672 17.3469 7.37016C17.9567 8.82361 18.1217 10.4252 17.8212 11.9725C17.5206 13.5197 16.768 14.9431 15.6584 16.0626C15.5097 16.2127 15.4266 16.4158 15.4276 16.6272C15.4286 16.8386 15.5135 17.041 15.6636 17.1897C15.8138 17.3385 16.0169 17.4216 16.2283 17.4206C16.4397 17.4196 16.642 17.3347 16.7908 17.1846C18.5737 15.382 19.5688 12.9458 19.5577 10.4105C19.5467 7.87516 18.5304 5.44775 16.7318 3.66079Z" fill="#0495D0" fill-opacity="0.85"/>
</svg>
