<svg width="28" height="27" viewBox="0 0 28 27" fill="none" xmlns="http://www.w3.org/2000/svg">
<path fill-rule="evenodd" clip-rule="evenodd" d="M12.52 0H15.434C16.1251 0 16.5282 0.575874 16.5282 1.30148C16.5282 2.02708 16.1712 2.61447 15.434 2.61447H12.52C11.7828 2.61447 11.4258 2.01556 11.4258 1.30148C11.4258 0.587392 11.7828 0 12.52 0Z" fill="url(#paint0_linear_1313_15922)"/>
<path fill-rule="evenodd" clip-rule="evenodd" d="M12.52 0H15.434C16.1251 0 16.5282 0.575874 16.5282 1.30148C16.5282 2.02708 16.1712 2.61447 15.434 2.61447H12.52C11.7828 2.61447 11.4258 2.01556 11.4258 1.30148C11.4258 0.587392 11.7828 0 12.52 0Z" fill="#E7A102" fill-opacity="0.7"/>
<path fill-rule="evenodd" clip-rule="evenodd" d="M12.52 0H15.434C16.1251 0 16.5282 0.575874 16.5282 1.30148C16.5282 2.02708 16.1712 2.61447 15.434 2.61447H12.52C11.7828 2.61447 11.4258 2.01556 11.4258 1.30148C11.4258 0.587392 11.7828 0 12.52 0Z" fill="url(#paint1_linear_1313_15922)"/>
<path d="M25.9038 19.7606C17.8071 19.0528 12.4488 18.755 2.00415 19.7606C1.73999 19.7605 1.47844 19.8128 1.23454 19.9142C0.990632 20.0156 0.769187 20.1643 0.582937 20.3516C0.396686 20.5389 0.249305 20.7612 0.149269 21.0057C0.0492324 21.2501 -0.00148504 21.512 3.31005e-05 21.7761V25.1507H27.9079V21.7761C27.9094 21.512 27.8587 21.2501 27.7587 21.0057C27.6586 20.7612 27.5112 20.5389 27.325 20.3516C27.1387 20.1643 26.9173 20.0156 26.6734 19.9142C26.4295 19.8128 26.1679 19.7605 25.9038 19.7606Z" fill="url(#paint2_linear_1313_15922)"/>
<path fill-rule="evenodd" clip-rule="evenodd" d="M14.2422 18.0004C15.1221 18.0133 15.9681 18.0257 17 18.0019V20.6327C19.7122 20.5309 22.5528 20.2529 25.9038 19.7617C26.1679 19.7617 26.4295 19.8139 26.6734 19.9154C26.9173 20.0168 27.1387 20.1654 27.325 20.3528C27.5112 20.5401 27.6586 20.7624 27.7587 21.0068C27.8587 21.2513 27.9094 21.5131 27.9079 21.7773V25.1519C17.3598 26.6401 11.2495 26.6408 3.31005e-05 25.1519V21.7773C-0.00148504 21.5131 0.0492324 21.2513 0.149269 21.0068C0.249305 20.7624 0.396686 20.5401 0.582937 20.3528C0.769187 20.1654 0.990632 20.0168 1.23454 19.9154C1.47844 19.8139 1.73999 19.7617 2.00415 19.7617C5.40801 20.158 8.28122 20.4439 11 20.5829V18.0019C12.3042 17.972 13.2929 17.9865 14.2422 18.0004Z" fill="url(#paint3_radial_1313_15922)"/>
<path d="M0 17.1154C0.104517 13.472 1.62535 10.0129 4.23945 7.47278C6.85356 4.93268 10.355 3.51172 14 3.51172C17.645 3.51172 21.1464 4.93268 23.7605 7.47278C26.3747 10.0129 27.8955 13.472 28 17.1154V17.4839H0V17.1154Z" fill="url(#paint4_linear_1313_15922)"/>
<path opacity="0.3" d="M2.94922 14.7305C4.6078 8.86805 7.79825 6.28814 11.0924 6.01172C11.0924 6.01172 7.06111 8.31521 7.06111 14.7305H2.94922Z" fill="#F8F5ED"/>
<defs>
<linearGradient id="paint0_linear_1313_15922" x1="13" y1="3" x2="15.4999" y2="0.499941" gradientUnits="userSpaceOnUse">
<stop stop-color="#E7A801"/>
<stop offset="1" stop-color="white"/>
</linearGradient>
<linearGradient id="paint1_linear_1313_15922" x1="13" y1="2.5" x2="14.5" y2="-1" gradientUnits="userSpaceOnUse">
<stop stop-color="#B6B6B6"/>
<stop offset="1" stop-color="white"/>
</linearGradient>
<linearGradient id="paint2_linear_1313_15922" x1="28" y1="21" x2="-0.499921" y2="23.5009" gradientUnits="userSpaceOnUse">
<stop offset="0.864583" stop-color="#ACABAB"/>
<stop offset="1" stop-color="#B5B7BA"/>
</linearGradient>
<radialGradient id="paint3_radial_1313_15922" cx="0" cy="0" r="1" gradientUnits="userSpaceOnUse" gradientTransform="translate(14 13.9304) rotate(90) scale(7.52885 106.293)">
<stop stop-color="#585858"/>
<stop offset="1" stop-color="#EEEEEE"/>
</radialGradient>
<linearGradient id="paint4_linear_1313_15922" x1="4.2501" y1="18.3938" x2="18.3247" y2="10.7804" gradientUnits="userSpaceOnUse">
<stop stop-color="#E77709"/>
<stop offset="1" stop-color="#E6A700"/>
</linearGradient>
</defs>
</svg>
